<svg 
 xmlns="http://www.w3.org/2000/svg"
 xmlns:xlink="http://www.w3.org/1999/xlink"
 width="72" height="59">
<defs>
<linearGradient id="PSgrad_0" x1="0%" x2="100%" y1="0%" y2="0%">
  <stop offset="0%" stop-color="rgb(23,100,227)" stop-opacity="1" />
  <stop offset="100%" stop-color="rgb(2,217,245)" stop-opacity="1" />
</linearGradient>

</defs>
<path fill-rule="evenodd"  fill="url(#PSgrad_0)"
d="M615.133,2741.54a2.409,2.409,0,0,0-2.407-.37l-60.785,24.12a1.177,1.177,0,0,0-.663,1.54,1.214,1.214,0,0,0,1.563.65l58.068-23.04-28.8,33.41a1.164,1.164,0,0,0,.14,1.66,1.214,1.214,0,0,0,1.692-.14l29.24-33.91-3.907,19.29-3.937,25.86a1.191,1.191,0,0,1-.6.86,1.161,1.161,0,0,1-1.012.05l-16.367-6.33-7.854-3.23a1.2,1.2,0,0,0-1.571.63,1.009,1.009,0,0,0-.051.25h-0.029l-3.9,14.8-5.595-19.22,29.165-21.36a1.164,1.164,0,0,0-.207-2.07,1.189,1.189,0,0,0-1.226.19l-29.315,21.46-21.131-8.41a1.205,1.205,0,0,0-1.555.65,1.167,1.167,0,0,0,.655,1.53l21.243,8.45,5.665,19.45a2.384,2.384,0,0,0,2.295,1.69h0.028a2.368,2.368,0,0,0,1.56-.62,0.66,0.66,0,0,0,.12-0.08l11.6-11.66,15.555,6.06a3.575,3.575,0,0,0,4.894-2.73l3.926-25.82,4.321-21.31A2.357,2.357,0,0,0,615.133,2741.54Zm-37.82,52.72,2.534-9.6,3.968,1.64,1.022,0.4Z" transform="translate(-544 -2741)"/>
</svg>
